<svg xmlns="http://www.w3.org/2000/svg" viewBox="0 0 1715.62 750.63"><defs><style>.cls-1,.cls-2,.cls-3{fill:#fff;}.cls-1{fill-rule:evenodd;}.cls-2{font-size:622.3px;font-family:Algerian;}.cls-3{font-size:504.77px;font-family:ScriptMTBold, Script MT Bold;}.cls-4{letter-spacing:-0.03em;}</style></defs><g id="Layer_2" data-name="Layer 2"><g id="Layer_1-2" data-name="Layer 1"><path class="cls-1" d="M483.58,258.75H618.15a11.24,11.24,0,0,1,11.2,11.19v0a11.25,11.25,0,0,1-11.2,11.18H483.58A11.24,11.24,0,0,1,472.38,270v0A11.23,11.23,0,0,1,483.58,258.75ZM550.87,0a23.72,23.72,0,0,1,8.94,45.69h0c6.16,4.92,12,10,17.58,15.29l-32.89,72.26a11.38,11.38,0,1,0,20.72,9.43l29-63.8c33.43,40,44,86.87,1,132.19H506.5c-55.57-58.57-21.73-119.72,35.4-165.37h0A23.72,23.72,0,0,1,550.87,0ZM496.78,293.84c-1.27,51-12.87,100.82-25.64,133.79H630.6c-14.86-37.41-27.14-86.53-28.86-133.79ZM468.37,440.3h165a13.73,13.73,0,1,1,0,27.45h-165a13.73,13.73,0,1,1,0-27.45ZM443.49,560.88H658.24a14.2,14.2,0,0,1,0,28.4H443.49a14.2,14.2,0,0,1,0-28.4Zm186.6-80.44c11.5,20.17,30.32,40.6,27.26,67.76h-213c-3.06-27.16,18.3-47.59,29.78-67.76ZM500,223.71h101.7a11.2,11.2,0,0,1,0,22.39H500a11.2,11.2,0,0,1,0-22.39Z"/><text class="cls-2" transform="translate(0 589.28)">b</text><text class="cls-3" transform="translate(699.43 575.08)"><tspan class="cls-4">S</tspan><tspan x="269.14" y="0">hop</tspan></text></g></g></svg>